<?xml version="1.0" encoding="utf-8"?>
<!-- Generator: Adobe Illustrator 24.0.3, SVG Export Plug-In . SVG Version: 6.00 Build 0)  -->
<svg version="1.1" id="Layer_1" xmlns="http://www.w3.org/2000/svg" xmlns:xlink="http://www.w3.org/1999/xlink" x="0px" y="0px"
	 viewBox="0 0 56 56" style="enable-background:new 0 0 56 56;" xml:space="preserve">
<style type="text/css">
	.st0{fill:#666666;}
</style>
<g>
	<path class="st0" d="M54,1.96c-6.45,7.2-12.5,14.64-18.14,22.34C30.22,32,25.04,39.89,20.3,47.99c-0.35,0.6-0.78,1.43-1.31,2.5
		c-1.62,3.24-3.92,4.86-6.91,4.86c-1.27,0-2.32-0.19-3.14-0.56c-0.82-0.37-1.58-1.02-2.28-1.94c-0.57-0.8-1.11-1.84-1.61-3.12
		c-0.5-1.28-1.08-3.17-1.76-5.66c-0.05-0.15-0.1-0.34-0.15-0.56C2.39,40.74,2,39.01,2,38.31c0-1.42,0.83-2.72,2.48-3.9
		c1.66-1.18,3.29-1.78,4.91-1.78c0.52,0,0.95,0.16,1.27,0.47c0.32,0.31,0.7,0.98,1.12,2c0.25,0.62,0.56,1.47,0.93,2.54
		c0.85,2.39,1.56,3.59,2.13,3.59c0.5,0,2.47-2.73,5.9-8.18c3.29-5.2,6.11-9.58,8.48-13.11c3.31-4.96,5.83-8.54,7.56-10.74
		c1.73-2.2,3.29-3.88,4.69-5.02c1.22-1,2.79-1.78,4.71-2.35c1.92-0.57,4.35-0.96,7.28-1.16L54,1.96z"/>
</g>
</svg>
