<?xml version="1.0" encoding="utf-8"?>
<!-- Generator: Adobe Illustrator 23.0.4, SVG Export Plug-In . SVG Version: 6.00 Build 0)  -->
<svg version="1.1" id="Layer_1" xmlns="http://www.w3.org/2000/svg" xmlns:xlink="http://www.w3.org/1999/xlink" x="0px" y="0px"
	 viewBox="0 0 256 256" style="enable-background:new 0 0 256 256;" xml:space="preserve">
<path style="fill:#E5E5E5;" d="M130.2,72h-4.3c-6,0-10.8-4.9-10.8-10.8V12.8c0-6,4.9-10.8,10.8-10.8h4.3c6,0,10.8,4.9,10.8,10.8
	v48.3C141,67.1,136.1,72,130.2,72z"/>
<path style="fill:#666666;" d="M101.9,78.4l-3.7,2.2c-5.2,3-11.8,1.2-14.8-4L59.2,34.8c-3-5.2-1.2-11.8,4-14.8l3.7-2.2
	c5.2-3,11.8-1.2,14.8,4l24.2,41.8C108.8,68.8,107.1,75.4,101.9,78.4z"/>
<path style="fill:#7F7F7F;" d="M80.6,98.1l-2.2,3.7c-3,5.2-9.6,7-14.8,4L21.8,81.7c-5.2-3-7-9.6-4-14.8l2.2-3.7c3-5.2,9.6-7,14.8-4
	l41.8,24.2C81.8,86.3,83.6,92.9,80.6,98.1z"/>
<path style="fill:#999999;" d="M72,125.8v4.3c0,6-4.9,10.8-10.8,10.8H12.8c-6,0-10.8-4.9-10.8-10.8v-4.3c0-6,4.9-10.8,10.8-10.8
	h48.3C67.1,115,72,119.9,72,125.8z"/>
<path style="fill:#B2B2B2;" d="M78.4,154.1l2.2,3.7c3,5.2,1.2,11.8-4,14.8l-41.8,24.2c-5.2,3-11.8,1.2-14.8-4l-2.2-3.7
	c-3-5.2-1.2-11.8,4-14.8l41.8-24.2C68.8,147.2,75.4,148.9,78.4,154.1z"/>
<path style="fill:#CCCCCC;" d="M98.1,175.4l3.7,2.2c5.2,3,7,9.6,4,14.8l-24.2,41.8c-3,5.2-9.6,7-14.8,4l-3.7-2.2
	c-5.2-3-7-9.6-4-14.8l24.2-41.8C86.3,174.2,92.9,172.4,98.1,175.4z"/>
<path style="fill:#E5E5E5;" d="M125.8,184h4.3c6,0,10.8,4.9,10.8,10.8v48.3c0,6-4.9,10.8-10.8,10.8h-4.3c-6,0-10.8-4.9-10.8-10.8
	v-48.3C115,188.9,119.9,184,125.8,184z"/>
<path style="fill:#E5E5E5;" d="M154.1,177.6l3.7-2.2c5.2-3,11.8-1.2,14.8,4l24.2,41.8c3,5.2,1.2,11.8-4,14.8l-3.7,2.2
	c-5.2,3-11.8,1.2-14.8-4l-24.2-41.8C147.2,187.2,148.9,180.6,154.1,177.6z"/>
<path style="fill:#E5E5E5;" d="M175.4,157.9l2.2-3.7c3-5.2,9.6-7,14.8-4l41.8,24.2c5.2,3,7,9.6,4,14.8l-2.2,3.7c-3,5.2-9.6,7-14.8,4
	l-41.8-24.2C174.2,169.7,172.4,163.1,175.4,157.9z"/>
<path style="fill:#E5E5E5;" d="M184,130.2v-4.3c0-6,4.9-10.8,10.8-10.8h48.3c6,0,10.8,4.9,10.8,10.8v4.3c0,6-4.9,10.8-10.8,10.8
	h-48.3C188.9,141,184,136.1,184,130.2z"/>
<path style="fill:#E5E5E5;" d="M177.6,101.9l-2.2-3.7c-3-5.2-1.2-11.8,4-14.8l41.8-24.2c5.2-3,11.8-1.2,14.8,4l2.2,3.7
	c3,5.2,1.2,11.8-4,14.8l-41.8,24.2C187.2,108.8,180.6,107.1,177.6,101.9z"/>
<path style="fill:#E5E5E5;" d="M157.9,80.6l-3.7-2.2c-5.2-3-7-9.6-4-14.8l24.2-41.8c3-5.2,9.6-7,14.8-4l3.7,2.2c5.2,3,7,9.6,4,14.8
	l-24.2,41.8C169.7,81.8,163.1,83.6,157.9,80.6z"/>
</svg>
